<svg xmlns="http://www.w3.org/2000/svg" width="479" height="480" viewBox="0 0 479 480" fill="none">
<path d="M478.959 272.283C478.959 272.283 478.87 273.935 478.424 276.391C478.29 276.927 478.157 277.641 478.023 278.4L477.8 279.382C477.533 280.811 477.221 282.329 476.953 283.847L474.77 295.1C473.879 300.011 468.932 303.628 463.05 303.628C462.114 303.628 461.178 303.539 460.287 303.36C457.97 303.36 444.512 303.226 431.455 302.378C423.568 301.976 416.259 301.261 411.268 300.726C410.555 302.378 409.62 304.566 408.639 306.932L407.347 310.058C404.807 316.13 403.113 320.104 402.802 320.774C401.955 322.828 400.573 325.06 399.237 327.204C397.632 329.838 396.073 332.339 395.493 334.303C394.78 336.938 400.529 342.162 403.96 345.243C405.743 346.85 407.525 348.502 408.907 350.02C417.374 359.085 425.618 369.042 427.935 371.9C430.519 373.909 432.346 377.034 432.748 380.383C433.104 383.33 432.302 386.143 430.519 388.287L423.3 396.904C422.231 398.154 421.25 399.36 420.315 400.476L418.309 402.887C416.75 404.763 415.546 405.834 415.502 405.879C413.63 407.71 410.912 408.781 407.882 408.781C404.584 408.781 401.376 407.531 399.103 405.343C390.413 400.342 381.679 394.94 374.683 390.296C370.271 387.394 365.815 384.268 362.25 381.767L357.972 378.687C349.282 385.474 330.744 397.485 326.377 400.298C328.427 407.665 330.031 414.229 331.323 420.346C332.794 426.508 334.265 433.741 335.379 440.171C336.003 444.145 336.582 447.092 336.76 448.298C338.008 451.423 338.052 454.861 336.894 457.808C335.78 460.577 333.73 462.72 331.101 463.836L320.539 468.078L309.399 471.561C308.463 471.874 307.438 472.007 306.458 472.007C301.467 472.007 296.877 468.435 295.272 463.301C294.782 462.541 293.133 459.728 291.039 455.799C288.499 451.379 285.112 445.083 281.592 438.028C278.963 432.625 276.111 426.463 273.036 419.676C271.61 419.944 270.273 420.257 268.981 420.525C257.617 422.757 245.942 422.802 234.712 422.847C233.063 428.83 231.058 435.84 229.186 442.047C225.443 454.058 220.898 466.114 219.605 469.507C218.848 475.401 213.946 480 208.153 480H207.173C206.638 479.911 204.989 479.777 203.028 479.286C202.003 479.152 200.221 478.839 198.305 478.437L184.535 475.758C181.772 475.267 179.41 473.615 177.806 471.07C176.068 468.346 175.489 464.685 176.246 461.336C176.202 459.996 176.291 446.02 177.227 432.491C177.628 424.365 178.43 416.595 178.92 412.264C169.384 408.201 149.019 397.976 144.384 395.609C140.062 399.94 135.026 404.941 129.723 409.853C119.786 419.007 108.957 427.892 107.754 428.874C105.615 431.732 101.782 433.652 97.9055 433.652C95.4546 433.652 93.2265 432.893 91.5331 431.42L80.4371 422.132C79.0111 420.927 77.8079 419.9 76.8275 418.962C75.2233 417.756 73.9755 416.461 73.931 416.417C69.6975 412.13 69.8758 404.941 74.332 400.03C74.5103 399.717 81.6848 387.17 89.5278 375.472C93.4047 369.578 97.549 363.594 100.936 359.085C99.9554 357.879 99.1087 356.807 98.262 355.825C90.7756 346.18 84.5368 336.848 79.1448 327.248C75.0896 328.32 67.8259 330.24 59.5373 332.16C52.4073 333.767 45.1882 335.196 39.707 336.045C35.4736 336.848 32.2651 337.384 31.151 337.563C29.9033 338.099 28.2991 338.411 26.6948 338.411C21.9266 338.411 17.7378 335.821 15.9998 331.803L15.9107 331.49C15.4651 330.329 13.6826 325.775 11.8555 321.265C9.9839 315.505 8.37965 310.013 8.37965 310.013C7.57753 307.245 7.93403 304.253 9.40459 301.663C10.9197 298.94 13.5935 296.796 16.7128 295.814L24.0211 291.706C30.5717 288 36.5877 284.83 41.9352 282.285C48.4858 278.891 55.1256 275.9 60.1166 273.667C59.8492 272.283 59.5819 270.943 59.2699 269.648C57.2201 258.709 56.3288 246.519 56.8636 235.222L53.0312 234.195C48.6195 232.945 43.1383 231.382 37.7908 229.686C25.2242 225.756 12.8805 221.068 10.5186 220.13C7.57753 219.773 4.59185 218.166 2.58654 215.754C0.670358 213.433 -0.220891 210.53 0.0464838 207.628C0.0464838 207.628 0.135609 206.02 0.53667 203.743L0.848607 202.225C1.16054 200.35 1.60617 198.162 2.09635 195.929C3.07673 190.571 4.19079 184.99 4.19079 184.99C5.08204 180.078 10.073 176.372 15.8216 176.372C16.802 176.372 17.7378 176.461 18.629 176.685C23.1298 176.685 35.4736 176.863 47.3718 177.622C56.2842 178.113 64.1718 178.962 67.8705 179.364C71.3909 170.835 79.5013 154.091 84.1803 144.804C80.4816 141.142 75.2233 135.829 69.9649 130.024C61.097 120.424 52.541 110.065 50.8922 108.1C48.3076 106.002 46.5696 102.787 46.2131 99.4381C45.9012 96.5805 46.7033 93.8567 48.4858 91.8028L55.7049 83.0958C57.3983 80.9526 59.3591 78.6754 60.6959 77.1126C62.2556 75.1926 63.5034 74.1209 63.5479 74.0763C65.375 72.2902 68.0487 71.2633 71.0344 71.2633C74.332 71.2633 77.5405 72.5135 79.9023 74.746C83.7793 76.934 94.3851 83.1851 104.278 89.7488C109.046 92.9191 113.859 96.3126 117.379 98.813L120.588 101.09C125.445 96.9377 130.882 93.6781 136.14 90.4633L137.031 91.267L136.452 90.2847C141.8 87.0251 146.88 83.9442 151.336 80.0149C153.475 78.1395 150.667 69.6558 149.331 65.5479C148.573 63.3154 147.949 61.3507 147.548 59.7433C146.078 53.2688 144.607 46.08 143.582 39.9181C142.824 35.587 142.29 32.4167 142.111 31.3005C140.997 28.4428 140.997 25.0047 142.156 22.0577C143.27 19.334 145.32 17.28 147.949 16.2084C147.949 16.2084 153.163 14.0205 158.466 11.8772C163.635 10.3144 168.492 8.75163 169.295 8.48372C170.453 8.12651 171.523 7.99256 172.592 7.99256C177.583 7.99256 182.128 11.6093 183.733 16.7888C184.178 17.5479 185.783 20.3163 187.922 24.1116C189.793 27.4605 193.492 34.2474 197.28 42.0167C199.909 47.2409 202.716 53.2688 205.88 60.3237C216.575 58.4484 227.671 57.4214 239.792 57.1535C240.728 57.1981 241.441 57.1981 242.154 57.1981H244.293C245.764 51.3935 247.724 44.5172 249.863 37.8642C253.874 24.5135 259.088 11.0288 259.311 10.4484C260.113 4.59907 265.015 0 270.585 0H271.743C271.743 0 273.437 0.223256 275.71 0.625116L278.116 1.11628C279.72 1.42884 281.414 1.7414 283.196 2.05395L294.426 4.28651C297.144 4.77767 299.55 6.47442 301.11 9.01954C302.893 11.8772 303.427 15.4047 302.625 18.7535C302.625 20.0484 302.581 34.0688 301.734 47.5535C301.467 51.8847 301.066 56.1712 300.62 60.9488V61.2167C300.353 63.5833 300.13 65.9051 299.952 68.227C303.873 70.1916 313.008 74.2102 327.224 80.1935L330.61 81.667C331.992 82.2921 333.418 83.0958 334.888 84.0335C338.453 80.4614 343.623 75.3265 349.282 70.1916C357.927 62.1098 367.419 54.1619 371.118 51.1256C373.346 48.2679 377.178 46.3926 380.966 46.3926C383.461 46.3926 385.69 47.1516 387.428 48.6251L396.028 55.814C397.053 56.707 398.033 57.5554 398.969 58.3144L401.999 60.8595C403.871 62.4223 404.985 63.6279 405.03 63.6726C406.901 65.5033 408.06 68.2716 408.06 71.3079C408.06 74.3442 406.768 77.6484 404.495 80.0149C403.381 82.0242 396.741 93.5442 389.477 104.439C385.155 110.913 380.921 116.941 378.114 120.871C386.002 129.756 392.82 139.446 397.855 149.001C398.434 150.296 399.103 151.546 399.771 152.841C404.317 151.591 411.892 149.581 419.334 147.885C425.885 146.411 433.104 144.982 439.209 143.911C442.685 143.286 445.448 142.884 446.963 142.616L447.765 142.482C449.057 141.946 450.662 141.633 452.31 141.633C457.123 141.633 461.357 144.357 462.916 148.42C462.916 148.42 465.011 153.645 467.105 158.69C468.888 164.54 470.581 169.987 470.581 169.987C471.383 172.711 471.071 175.613 469.69 178.203C468.13 180.971 465.456 183.159 462.248 184.141C461.535 184.588 458.727 186.195 455.029 188.339C450.35 190.973 443.754 194.411 436.981 197.715C429.628 201.466 422.632 204.636 418.71 206.378C420.716 217.54 421.741 229.775 421.919 244.733L426.509 246.028C431.143 247.367 436.179 248.796 441.17 250.404C454.539 254.556 467.863 259.691 468.397 259.914C474.77 260.718 479.493 266.21 478.959 272.283Z" fill="#0795ED"/>
</svg>