<svg width="60" height="60" viewBox="0 0 60 60" fill="none" xmlns="http://www.w3.org/2000/svg">
<path d="M60 30C60 13.4318 46.5682 0 30 0C13.4318 0 0 13.4318 0 30C0 46.5682 13.4318 60 30 60C46.5682 60 60 46.5682 60 30ZM2.72727 30C2.72727 14.9373 14.9373 2.72727 30 2.72727C45.0627 2.72727 57.2727 14.9373 57.2727 30C57.2727 45.0627 45.0627 57.2727 30 57.2727C14.9373 57.2727 2.72727 45.0627 2.72727 30Z" fill="#0795ED"/>
<path d="M31.1511 47.3155V30H36.8648L37.7675 24.2619H31.1511V21.3846C31.1511 19.8873 31.642 18.4582 33.7911 18.4582H38.0866V12.731H31.9884C26.8611 12.731 25.462 16.1073 25.462 20.7873V24.2591H21.9438V30H25.462V47.3155H31.1511Z" fill="#0795ED"/>
</svg>
