<svg width="66" height="66" viewBox="0 0 66 66" fill="none" xmlns="http://www.w3.org/2000/svg">
<path d="M65.6825 37.2656C65.6825 37.2656 65.6703 37.4917 65.6091 37.8278C65.5908 37.9011 65.5725 37.9989 65.5541 38.1028L65.5236 38.2372C65.4869 38.4328 65.4441 38.6406 65.4075 38.8483L65.108 40.3883C64.9858 41.0606 64.3075 41.5556 63.5008 41.5556C63.3725 41.5556 63.2441 41.5433 63.1219 41.5189C62.8041 41.5189 60.9586 41.5006 59.168 41.3844C58.0864 41.3294 57.0841 41.2317 56.3997 41.1583C56.3019 41.3844 56.1736 41.6839 56.0391 42.0078L55.8619 42.4356C55.5136 43.2667 55.2814 43.8106 55.2386 43.9022C55.1225 44.1833 54.933 44.4889 54.7497 44.7822C54.5297 45.1428 54.3158 45.485 54.2364 45.7539C54.1386 46.1144 54.9269 46.8294 55.3975 47.2511C55.6419 47.4711 55.8864 47.6972 56.0758 47.905C57.2369 49.1456 58.3675 50.5083 58.6853 50.8994C59.0397 51.1744 59.2903 51.6022 59.3453 52.0606C59.3941 52.4639 59.2841 52.8489 59.0397 53.1422L58.0497 54.3217C57.903 54.4928 57.7686 54.6578 57.6403 54.8106L57.3653 55.1406C57.1514 55.3972 56.9864 55.5439 56.9803 55.55C56.7236 55.8006 56.3508 55.9472 55.9353 55.9472C55.483 55.9472 55.043 55.7761 54.7314 55.4767C53.5397 54.7922 52.3419 54.0528 51.3825 53.4172C50.7775 53.02 50.1664 52.5922 49.6775 52.25L49.0908 51.8283C47.8992 52.7572 45.3569 54.4011 44.758 54.7861C45.0392 55.7944 45.2591 56.6928 45.4364 57.53C45.638 58.3733 45.8397 59.3633 45.9925 60.2433C46.078 60.7872 46.1575 61.1906 46.1819 61.3556C46.353 61.7833 46.3591 62.2539 46.2003 62.6572C46.0475 63.0361 45.7664 63.3294 45.4058 63.4822L43.9575 64.0628L42.4297 64.5394C42.3014 64.5822 42.1608 64.6006 42.0264 64.6006C41.3419 64.6006 40.7125 64.1117 40.4925 63.4089C40.4253 63.305 40.1992 62.92 39.9119 62.3822C39.5636 61.7772 39.0991 60.9156 38.6164 59.95C38.2558 59.2106 37.8647 58.3672 37.443 57.4383C37.2475 57.475 37.0641 57.5178 36.8869 57.5544C35.3286 57.86 33.7275 57.8661 32.1875 57.8722C31.9614 58.6911 31.6864 59.6506 31.4297 60.5C30.9164 62.1439 30.293 63.7939 30.1158 64.2583C30.0119 65.065 29.3397 65.6944 28.5453 65.6944H28.4108C28.3375 65.6822 28.1114 65.6639 27.8425 65.5967C27.7019 65.5783 27.4575 65.5356 27.1947 65.4806L25.3064 65.1139C24.9275 65.0467 24.6036 64.8206 24.3836 64.4722C24.1453 64.0994 24.0658 63.5983 24.1697 63.14C24.1636 62.9567 24.1758 61.0439 24.3041 59.1922C24.3591 58.08 24.4692 57.0167 24.5364 56.4239C23.2286 55.8678 20.4358 54.4683 19.8003 54.1444C19.2075 54.7372 18.5169 55.4217 17.7897 56.0939C16.4269 57.3467 14.9419 58.5628 14.7769 58.6972C14.4836 59.0883 13.958 59.3511 13.4264 59.3511C13.0903 59.3511 12.7847 59.2472 12.5525 59.0456L11.0308 57.7744C10.8353 57.6094 10.6703 57.4689 10.5358 57.3406C10.3158 57.1756 10.1447 56.9983 10.1386 56.9922C9.55804 56.4056 9.58249 55.4217 10.1936 54.7494C10.218 54.7067 11.2019 52.9894 12.2775 51.3883C12.8092 50.5817 13.3775 49.7628 13.8419 49.1456C13.7075 48.9806 13.5914 48.8339 13.4753 48.6994C12.4486 47.3794 11.593 46.1022 10.8536 44.7883C10.2975 44.935 9.30137 45.1978 8.16471 45.4606C7.18693 45.6806 6.19693 45.8761 5.44526 45.9922C4.86471 46.1022 4.42471 46.1756 4.27193 46.2C4.10082 46.2733 3.88082 46.3161 3.66082 46.3161C3.00693 46.3161 2.43249 45.9617 2.19415 45.4117L2.18193 45.3689C2.12082 45.21 1.87637 44.5867 1.62582 43.9694C1.36915 43.1811 1.14915 42.4294 1.14915 42.4294C1.03915 42.0506 1.08804 41.6411 1.28971 41.2867C1.49749 40.9139 1.86415 40.6206 2.29193 40.4861L3.29415 39.9239C4.19249 39.4167 5.01749 38.9828 5.75082 38.6344C6.64915 38.17 7.55971 37.7606 8.24415 37.455C8.20748 37.2656 8.17082 37.0822 8.12804 36.905C7.84693 35.4078 7.72471 33.7394 7.79804 32.1933L7.27248 32.0528C6.66748 31.8817 5.91582 31.6678 5.18248 31.4356C3.45915 30.8978 1.76637 30.2561 1.44249 30.1278C1.03915 30.0789 0.629708 29.8589 0.354708 29.5289C0.0919301 29.2111 -0.0302921 28.8139 0.0063746 28.4167C0.0063746 28.4167 0.0185968 28.1967 0.0735968 27.885L0.116375 27.6772C0.159152 27.4206 0.220263 27.1211 0.287486 26.8156C0.42193 26.0822 0.574708 25.3183 0.574708 25.3183C0.69693 24.6461 1.38137 24.1389 2.16971 24.1389C2.30415 24.1389 2.43249 24.1511 2.55471 24.1817C3.17193 24.1817 4.86471 24.2061 6.49637 24.31C7.7186 24.3772 8.80026 24.4933 9.30748 24.5483C9.79026 23.3811 10.9025 21.0894 11.5442 19.8183C11.0369 19.3172 10.3158 18.59 9.59471 17.7956C8.3786 16.4817 7.20526 15.0639 6.97915 14.795C6.62471 14.5078 6.38637 14.0678 6.33748 13.6094C6.29471 13.2183 6.40471 12.8456 6.64915 12.5644L7.63915 11.3728C7.87137 11.0794 8.14026 10.7678 8.3236 10.5539C8.53749 10.2911 8.7086 10.1444 8.71471 10.1383C8.96526 9.89389 9.33193 9.75333 9.74137 9.75333C10.1936 9.75333 10.6336 9.92444 10.9575 10.23C11.4892 10.5294 12.9436 11.385 14.3003 12.2833C14.9542 12.7172 15.6142 13.1817 16.0969 13.5239L16.5369 13.8356C17.203 13.2672 17.9486 12.8211 18.6697 12.3811L18.7919 12.4911L18.7125 12.3567C19.4458 11.9106 20.1425 11.4889 20.7536 10.9511C21.0469 10.6944 20.6619 9.53333 20.4786 8.97111C20.3747 8.66556 20.2892 8.39667 20.2341 8.17667C20.0325 7.29056 19.8308 6.30667 19.6903 5.46333C19.5864 4.87056 19.513 4.43667 19.4886 4.28389C19.3358 3.89278 19.3358 3.42222 19.4947 3.01889C19.6475 2.64611 19.9286 2.365 20.2892 2.21833C20.2892 2.21833 21.0042 1.91889 21.7314 1.62556C22.4403 1.41167 23.1064 1.19778 23.2164 1.16111C23.3753 1.11222 23.5219 1.09389 23.6686 1.09389C24.353 1.09389 24.9764 1.58889 25.1964 2.29778C25.2575 2.40167 25.4775 2.78056 25.7708 3.3C26.0275 3.75833 26.5347 4.68722 27.0541 5.75056C27.4147 6.46556 27.7997 7.29056 28.2336 8.25611C29.7003 7.99944 31.2219 7.85889 32.8842 7.82222C33.0125 7.82833 33.1103 7.82833 33.208 7.82833H33.5014C33.703 7.03389 33.9719 6.09278 34.2653 5.18222C34.8153 3.355 35.5303 1.50944 35.5608 1.43C35.6708 0.629444 36.343 0 37.1069 0H37.2658C37.2658 0 37.498 0.0305556 37.8097 0.0855556L38.1397 0.152778C38.3597 0.195556 38.5919 0.238333 38.8364 0.281111L40.3764 0.586667C40.7491 0.653889 41.0792 0.886111 41.293 1.23444C41.5375 1.62556 41.6108 2.10833 41.5008 2.56667C41.5008 2.74389 41.4947 4.66278 41.3786 6.50833C41.3419 7.10111 41.2869 7.68778 41.2258 8.34167V8.37833C41.1891 8.70222 41.1586 9.02 41.1341 9.33778C41.6719 9.60667 42.9247 10.1567 44.8741 10.9756L45.3386 11.1772C45.528 11.2628 45.7236 11.3728 45.9253 11.5011C46.4142 11.0122 47.123 10.3094 47.8991 9.60667C49.0847 8.50056 50.3864 7.41278 50.8936 6.99722C51.1992 6.60611 51.7247 6.34944 52.2441 6.34944C52.5864 6.34944 52.8919 6.45333 53.1303 6.655L54.3097 7.63889C54.4503 7.76111 54.5847 7.87722 54.713 7.98111L55.1286 8.32944C55.3853 8.54333 55.538 8.70833 55.5441 8.71444C55.8008 8.965 55.9597 9.34389 55.9597 9.75944C55.9597 10.175 55.7825 10.6272 55.4708 10.9511C55.318 11.2261 54.4075 12.8028 53.4114 14.2939C52.8186 15.18 52.238 16.005 51.853 16.5428C52.9347 17.7589 53.8697 19.085 54.5603 20.3928C54.6397 20.57 54.7314 20.7411 54.823 20.9183C55.4464 20.7472 56.4853 20.4722 57.5058 20.24C58.4041 20.0383 59.3941 19.8428 60.2314 19.6961C60.708 19.6106 61.0869 19.5556 61.2947 19.5189L61.4047 19.5006C61.5819 19.4272 61.8019 19.3844 62.028 19.3844C62.688 19.3844 63.2686 19.7572 63.4825 20.3133C63.4825 20.3133 63.7697 21.0283 64.0569 21.7189C64.3014 22.5194 64.5336 23.265 64.5336 23.265C64.6436 23.6378 64.6008 24.035 64.4114 24.3894C64.1975 24.7683 63.8308 25.0678 63.3908 25.2022C63.293 25.2633 62.908 25.4833 62.4008 25.7767C61.7591 26.1372 60.8547 26.6078 59.9258 27.06C58.9175 27.5733 57.958 28.0072 57.4203 28.2456C57.6953 29.7733 57.8358 31.4478 57.8603 33.495L58.4897 33.6722C59.1253 33.8556 59.8158 34.0511 60.5003 34.2711C62.3336 34.8394 64.1608 35.5422 64.2341 35.5728C65.108 35.6828 65.7558 36.4344 65.6825 37.2656Z" fill="#0795ED"/>
</svg>
