<svg width="108" height="108" viewBox="0 0 108 108" fill="none" xmlns="http://www.w3.org/2000/svg">
<mask id="path-1-inside-1_84_159" fill="white">
<path d="M107.48 60.98C107.48 60.98 107.46 61.35 107.36 61.9C107.33 62.02 107.3 62.18 107.27 62.35L107.22 62.57C107.16 62.89 107.09 63.23 107.03 63.57L106.54 66.09C106.34 67.19 105.23 68 103.91 68C103.7 68 103.49 67.98 103.29 67.94C102.77 67.94 99.7504 67.91 96.8204 67.72C95.0504 67.63 93.4104 67.47 92.2904 67.35C92.1304 67.72 91.9204 68.21 91.7004 68.74L91.4104 69.44C90.8404 70.8 90.4604 71.69 90.3904 71.84C90.2004 72.3 89.8904 72.8 89.5904 73.28C89.2304 73.87 88.8804 74.43 88.7504 74.87C88.5904 75.46 89.8804 76.63 90.6504 77.32C91.0504 77.68 91.4504 78.05 91.7604 78.39C93.6604 80.42 95.5104 82.65 96.0304 83.29C96.6104 83.74 97.0204 84.44 97.1104 85.19C97.1904 85.85 97.0104 86.48 96.6104 86.96L94.9904 88.89C94.7504 89.17 94.5304 89.44 94.3204 89.69L93.8704 90.23C93.5204 90.65 93.2504 90.89 93.2404 90.9C92.8204 91.31 92.2104 91.55 91.5304 91.55C90.7904 91.55 90.0704 91.27 89.5604 90.78C87.6104 89.66 85.6504 88.45 84.0804 87.41C83.0904 86.76 82.0904 86.06 81.2904 85.5L80.3304 84.81C78.3804 86.33 74.2204 89.02 73.2404 89.65C73.7004 91.3 74.0604 92.77 74.3504 94.14C74.6804 95.52 75.0104 97.14 75.2604 98.58C75.4004 99.47 75.5304 100.13 75.5704 100.4C75.8504 101.1 75.8604 101.87 75.6004 102.53C75.3504 103.15 74.8904 103.63 74.3004 103.88L71.9304 104.83L69.4304 105.61C69.2204 105.68 68.9904 105.71 68.7704 105.71C67.6504 105.71 66.6204 104.91 66.2604 103.76C66.1504 103.59 65.7804 102.96 65.3104 102.08C64.7404 101.09 63.9804 99.68 63.1904 98.1C62.6004 96.89 61.9604 95.51 61.2704 93.99C60.9504 94.05 60.6504 94.12 60.3604 94.18C57.8104 94.68 55.1904 94.69 52.6704 94.7C52.3004 96.04 51.8504 97.61 51.4304 99C50.5904 101.69 49.5704 104.39 49.2804 105.15C49.1104 106.47 48.0104 107.5 46.7104 107.5H46.4904C46.3704 107.48 46.0004 107.45 45.5604 107.34C45.3304 107.31 44.9304 107.24 44.5004 107.15L41.4104 106.55C40.7904 106.44 40.2604 106.07 39.9004 105.5C39.5104 104.89 39.3804 104.07 39.5504 103.32C39.5404 103.02 39.5604 99.89 39.7704 96.86C39.8604 95.04 40.0404 93.3 40.1504 92.33C38.0104 91.42 33.4404 89.13 32.4004 88.6C31.4304 89.57 30.3004 90.69 29.1104 91.79C26.8804 93.84 24.4504 95.83 24.1804 96.05C23.7004 96.69 22.8404 97.12 21.9704 97.12C21.4204 97.12 20.9204 96.95 20.5404 96.62L18.0504 94.54C17.7304 94.27 17.4604 94.04 17.2404 93.83C16.8804 93.56 16.6004 93.27 16.5904 93.26C15.6404 92.3 15.6804 90.69 16.6804 89.59C16.7204 89.52 18.3304 86.71 20.0904 84.09C20.9604 82.77 21.8904 81.43 22.6504 80.42C22.4304 80.15 22.2404 79.91 22.0504 79.69C20.3704 77.53 18.9704 75.44 17.7604 73.29C16.8504 73.53 15.2204 73.96 13.3604 74.39C11.7604 74.75 10.1404 75.07 8.91043 75.26C7.96043 75.44 7.24043 75.56 6.99043 75.6C6.71043 75.72 6.35043 75.79 5.99043 75.79C4.92043 75.79 3.98043 75.21 3.59043 74.31L3.57043 74.24C3.47043 73.98 3.07043 72.96 2.66043 71.95C2.24043 70.66 1.88043 69.43 1.88043 69.43C1.70043 68.81 1.78043 68.14 2.11043 67.56C2.45043 66.95 3.05043 66.47 3.75043 66.25L5.39043 65.33C6.86043 64.5 8.21043 63.79 9.41043 63.22C10.8804 62.46 12.3704 61.79 13.4904 61.29C13.4304 60.98 13.3704 60.68 13.3004 60.39C12.8404 57.94 12.6404 55.21 12.7604 52.68L11.9004 52.45C10.9104 52.17 9.68043 51.82 8.48043 51.44C5.66043 50.56 2.89043 49.51 2.36043 49.3C1.70043 49.22 1.03043 48.86 0.580431 48.32C0.150431 47.8 -0.0495688 47.15 0.0104312 46.5C0.0104312 46.5 0.0304312 46.14 0.120431 45.63L0.190431 45.29C0.260431 44.87 0.360431 44.38 0.470431 43.88C0.690431 42.68 0.940431 41.43 0.940431 41.43C1.14043 40.33 2.26043 39.5 3.55043 39.5C3.77043 39.5 3.98043 39.52 4.18043 39.57C5.19043 39.57 7.96043 39.61 10.6304 39.78C12.6304 39.89 14.4004 40.08 15.2304 40.17C16.0204 38.26 17.8404 34.51 18.8904 32.43C18.0604 31.61 16.8804 30.42 15.7004 29.12C13.7104 26.97 11.7904 24.65 11.4204 24.21C10.8404 23.74 10.4504 23.02 10.3704 22.27C10.3004 21.63 10.4804 21.02 10.8804 20.56L12.5004 18.61C12.8804 18.13 13.3204 17.62 13.6204 17.27C13.9704 16.84 14.2504 16.6 14.2604 16.59C14.6704 16.19 15.2704 15.96 15.9404 15.96C16.6804 15.96 17.4004 16.24 17.9304 16.74C18.8004 17.23 21.1804 18.63 23.4004 20.1C24.4704 20.81 25.5504 21.57 26.3404 22.13L27.0604 22.64C28.1504 21.71 29.3704 20.98 30.5504 20.26L30.7504 20.44L30.6204 20.22C31.8204 19.49 32.9604 18.8 33.9604 17.92C34.4404 17.5 33.8104 15.6 33.5104 14.68C33.3404 14.18 33.2004 13.74 33.1104 13.38C32.7804 11.93 32.4504 10.32 32.2204 8.94C32.0504 7.97 31.9304 7.26 31.8904 7.01C31.6404 6.37 31.6404 5.6 31.9004 4.94C32.1504 4.33 32.6104 3.87 33.2004 3.63C33.2004 3.63 34.3704 3.14 35.5604 2.66C36.7204 2.31 37.8104 1.96 37.9904 1.9C38.2504 1.82 38.4904 1.79 38.7304 1.79C39.8504 1.79 40.8704 2.6 41.2304 3.76C41.3304 3.93 41.6904 4.55 42.1704 5.4C42.5904 6.15 43.4204 7.67 44.2704 9.41C44.8604 10.58 45.4904 11.93 46.2004 13.51C48.6004 13.09 51.0904 12.86 53.8104 12.8C54.0204 12.81 54.1804 12.81 54.3404 12.81H54.8204C55.1504 11.51 55.5904 9.97 56.0704 8.48C56.9704 5.49 58.1404 2.47 58.1904 2.34C58.3704 1.03 59.4704 0 60.7204 0H60.9804C60.9804 0 61.3604 0.05 61.8704 0.14L62.4104 0.25C62.7704 0.32 63.1504 0.39 63.5504 0.46L66.0704 0.96C66.6804 1.07 67.2204 1.45 67.5704 2.02C67.9704 2.66 68.0904 3.45 67.9104 4.2C67.9104 4.49 67.9004 7.63 67.7104 10.65C67.6504 11.62 67.5604 12.58 67.4604 13.65V13.71C67.4004 14.24 67.3504 14.76 67.3104 15.28C68.1904 15.72 70.2404 16.62 73.4304 17.96L74.1904 18.29C74.5004 18.43 74.8204 18.61 75.1504 18.82C75.9504 18.02 77.1104 16.87 78.3804 15.72C80.3204 13.91 82.4504 12.13 83.2804 11.45C83.7804 10.81 84.6404 10.39 85.4904 10.39C86.0504 10.39 86.5504 10.56 86.9404 10.89L88.8704 12.5C89.1004 12.7 89.3204 12.89 89.5304 13.06L90.2104 13.63C90.6304 13.98 90.8804 14.25 90.8904 14.26C91.3104 14.67 91.5704 15.29 91.5704 15.97C91.5704 16.65 91.2804 17.39 90.7704 17.92C90.5204 18.37 89.0304 20.95 87.4004 23.39C86.4304 24.84 85.4804 26.19 84.8504 27.07C86.6204 29.06 88.1504 31.23 89.2804 33.37C89.4104 33.66 89.5604 33.94 89.7104 34.23C90.7304 33.95 92.4304 33.5 94.1004 33.12C95.5704 32.79 97.1904 32.47 98.5604 32.23C99.3404 32.09 99.9604 32 100.3 31.94L100.48 31.91C100.77 31.79 101.13 31.72 101.5 31.72C102.58 31.72 103.53 32.33 103.88 33.24C103.88 33.24 104.35 34.41 104.82 35.54C105.22 36.85 105.6 38.07 105.6 38.07C105.78 38.68 105.71 39.33 105.4 39.91C105.05 40.53 104.45 41.02 103.73 41.24C103.57 41.34 102.94 41.7 102.11 42.18C101.06 42.77 99.5804 43.54 98.0604 44.28C96.4104 45.12 94.8404 45.83 93.9604 46.22C94.4104 48.72 94.6404 51.46 94.6804 54.81L95.7104 55.1C96.7504 55.4 97.8804 55.72 99.0004 56.08C102 57.01 104.99 58.16 105.11 58.21C106.54 58.39 107.6 59.62 107.48 60.98Z"/>
</mask>
<path d="M107.48 60.98C107.48 60.98 107.46 61.35 107.36 61.9C107.33 62.02 107.3 62.18 107.27 62.35L107.22 62.57C107.16 62.89 107.09 63.23 107.03 63.57L106.54 66.09C106.34 67.19 105.23 68 103.91 68C103.7 68 103.49 67.98 103.29 67.94C102.77 67.94 99.7504 67.91 96.8204 67.72C95.0504 67.63 93.4104 67.47 92.2904 67.35C92.1304 67.72 91.9204 68.21 91.7004 68.74L91.4104 69.44C90.8404 70.8 90.4604 71.69 90.3904 71.84C90.2004 72.3 89.8904 72.8 89.5904 73.28C89.2304 73.87 88.8804 74.43 88.7504 74.87C88.5904 75.46 89.8804 76.63 90.6504 77.32C91.0504 77.68 91.4504 78.05 91.7604 78.39C93.6604 80.42 95.5104 82.65 96.0304 83.29C96.6104 83.74 97.0204 84.44 97.1104 85.19C97.1904 85.85 97.0104 86.48 96.6104 86.96L94.9904 88.89C94.7504 89.17 94.5304 89.44 94.3204 89.69L93.8704 90.23C93.5204 90.65 93.2504 90.89 93.2404 90.9C92.8204 91.31 92.2104 91.55 91.5304 91.55C90.7904 91.55 90.0704 91.27 89.5604 90.78C87.6104 89.66 85.6504 88.45 84.0804 87.41C83.0904 86.76 82.0904 86.06 81.2904 85.5L80.3304 84.81C78.3804 86.33 74.2204 89.02 73.2404 89.65C73.7004 91.3 74.0604 92.77 74.3504 94.14C74.6804 95.52 75.0104 97.14 75.2604 98.58C75.4004 99.47 75.5304 100.13 75.5704 100.4C75.8504 101.1 75.8604 101.87 75.6004 102.53C75.3504 103.15 74.8904 103.63 74.3004 103.88L71.9304 104.83L69.4304 105.61C69.2204 105.68 68.9904 105.71 68.7704 105.71C67.6504 105.71 66.6204 104.91 66.2604 103.76C66.1504 103.59 65.7804 102.96 65.3104 102.08C64.7404 101.09 63.9804 99.68 63.1904 98.1C62.6004 96.89 61.9604 95.51 61.2704 93.99C60.9504 94.05 60.6504 94.12 60.3604 94.18C57.8104 94.68 55.1904 94.69 52.6704 94.7C52.3004 96.04 51.8504 97.61 51.4304 99C50.5904 101.69 49.5704 104.39 49.2804 105.15C49.1104 106.47 48.0104 107.5 46.7104 107.5H46.4904C46.3704 107.48 46.0004 107.45 45.5604 107.34C45.3304 107.31 44.9304 107.24 44.5004 107.15L41.4104 106.55C40.7904 106.44 40.2604 106.07 39.9004 105.5C39.5104 104.89 39.3804 104.07 39.5504 103.32C39.5404 103.02 39.5604 99.89 39.7704 96.86C39.8604 95.04 40.0404 93.3 40.1504 92.33C38.0104 91.42 33.4404 89.13 32.4004 88.6C31.4304 89.57 30.3004 90.69 29.1104 91.79C26.8804 93.84 24.4504 95.83 24.1804 96.05C23.7004 96.69 22.8404 97.12 21.9704 97.12C21.4204 97.12 20.9204 96.95 20.5404 96.62L18.0504 94.54C17.7304 94.27 17.4604 94.04 17.2404 93.83C16.8804 93.56 16.6004 93.27 16.5904 93.26C15.6404 92.3 15.6804 90.69 16.6804 89.59C16.7204 89.52 18.3304 86.71 20.0904 84.09C20.9604 82.77 21.8904 81.43 22.6504 80.42C22.4304 80.15 22.2404 79.91 22.0504 79.69C20.3704 77.53 18.9704 75.44 17.7604 73.29C16.8504 73.53 15.2204 73.96 13.3604 74.39C11.7604 74.75 10.1404 75.07 8.91043 75.26C7.96043 75.44 7.24043 75.56 6.99043 75.6C6.71043 75.72 6.35043 75.79 5.99043 75.79C4.92043 75.79 3.98043 75.21 3.59043 74.31L3.57043 74.24C3.47043 73.98 3.07043 72.96 2.66043 71.95C2.24043 70.66 1.88043 69.43 1.88043 69.43C1.70043 68.81 1.78043 68.14 2.11043 67.56C2.45043 66.95 3.05043 66.47 3.75043 66.25L5.39043 65.33C6.86043 64.5 8.21043 63.79 9.41043 63.22C10.8804 62.46 12.3704 61.79 13.4904 61.29C13.4304 60.98 13.3704 60.68 13.3004 60.39C12.8404 57.94 12.6404 55.21 12.7604 52.68L11.9004 52.45C10.9104 52.17 9.68043 51.82 8.48043 51.44C5.66043 50.56 2.89043 49.51 2.36043 49.3C1.70043 49.22 1.03043 48.86 0.580431 48.32C0.150431 47.8 -0.0495688 47.15 0.0104312 46.5C0.0104312 46.5 0.0304312 46.14 0.120431 45.63L0.190431 45.29C0.260431 44.87 0.360431 44.38 0.470431 43.88C0.690431 42.68 0.940431 41.43 0.940431 41.43C1.14043 40.33 2.26043 39.5 3.55043 39.5C3.77043 39.5 3.98043 39.52 4.18043 39.57C5.19043 39.57 7.96043 39.61 10.6304 39.78C12.6304 39.89 14.4004 40.08 15.2304 40.17C16.0204 38.26 17.8404 34.51 18.8904 32.43C18.0604 31.61 16.8804 30.42 15.7004 29.12C13.7104 26.97 11.7904 24.65 11.4204 24.21C10.8404 23.74 10.4504 23.02 10.3704 22.27C10.3004 21.63 10.4804 21.02 10.8804 20.56L12.5004 18.61C12.8804 18.13 13.3204 17.62 13.6204 17.27C13.9704 16.84 14.2504 16.6 14.2604 16.59C14.6704 16.19 15.2704 15.96 15.9404 15.96C16.6804 15.96 17.4004 16.24 17.9304 16.74C18.8004 17.23 21.1804 18.63 23.4004 20.1C24.4704 20.81 25.5504 21.57 26.3404 22.13L27.0604 22.64C28.1504 21.71 29.3704 20.98 30.5504 20.26L30.7504 20.44L30.6204 20.22C31.8204 19.49 32.9604 18.8 33.9604 17.92C34.4404 17.5 33.8104 15.6 33.5104 14.68C33.3404 14.18 33.2004 13.74 33.1104 13.38C32.7804 11.93 32.4504 10.32 32.2204 8.94C32.0504 7.97 31.9304 7.26 31.8904 7.01C31.6404 6.37 31.6404 5.6 31.9004 4.94C32.1504 4.33 32.6104 3.87 33.2004 3.63C33.2004 3.63 34.3704 3.14 35.5604 2.66C36.7204 2.31 37.8104 1.96 37.9904 1.9C38.2504 1.82 38.4904 1.79 38.7304 1.79C39.8504 1.79 40.8704 2.6 41.2304 3.76C41.3304 3.93 41.6904 4.55 42.1704 5.4C42.5904 6.15 43.4204 7.67 44.2704 9.41C44.8604 10.58 45.4904 11.93 46.2004 13.51C48.6004 13.09 51.0904 12.86 53.8104 12.8C54.0204 12.81 54.1804 12.81 54.3404 12.81H54.8204C55.1504 11.51 55.5904 9.97 56.0704 8.48C56.9704 5.49 58.1404 2.47 58.1904 2.34C58.3704 1.03 59.4704 0 60.7204 0H60.9804C60.9804 0 61.3604 0.05 61.8704 0.14L62.4104 0.25C62.7704 0.32 63.1504 0.39 63.5504 0.46L66.0704 0.96C66.6804 1.07 67.2204 1.45 67.5704 2.02C67.9704 2.66 68.0904 3.45 67.9104 4.2C67.9104 4.49 67.9004 7.63 67.7104 10.65C67.6504 11.62 67.5604 12.58 67.4604 13.65V13.71C67.4004 14.24 67.3504 14.76 67.3104 15.28C68.1904 15.72 70.2404 16.62 73.4304 17.96L74.1904 18.29C74.5004 18.43 74.8204 18.61 75.1504 18.82C75.9504 18.02 77.1104 16.87 78.3804 15.72C80.3204 13.91 82.4504 12.13 83.2804 11.45C83.7804 10.81 84.6404 10.39 85.4904 10.39C86.0504 10.39 86.5504 10.56 86.9404 10.89L88.8704 12.5C89.1004 12.7 89.3204 12.89 89.5304 13.06L90.2104 13.63C90.6304 13.98 90.8804 14.25 90.8904 14.26C91.3104 14.67 91.5704 15.29 91.5704 15.97C91.5704 16.65 91.2804 17.39 90.7704 17.92C90.5204 18.37 89.0304 20.95 87.4004 23.39C86.4304 24.84 85.4804 26.19 84.8504 27.07C86.6204 29.06 88.1504 31.23 89.2804 33.37C89.4104 33.66 89.5604 33.94 89.7104 34.23C90.7304 33.95 92.4304 33.5 94.1004 33.12C95.5704 32.79 97.1904 32.47 98.5604 32.23C99.3404 32.09 99.9604 32 100.3 31.94L100.48 31.91C100.77 31.79 101.13 31.72 101.5 31.72C102.58 31.72 103.53 32.33 103.88 33.24C103.88 33.24 104.35 34.41 104.82 35.54C105.22 36.85 105.6 38.07 105.6 38.07C105.78 38.68 105.71 39.33 105.4 39.91C105.05 40.53 104.45 41.02 103.73 41.24C103.57 41.34 102.94 41.7 102.11 42.18C101.06 42.77 99.5804 43.54 98.0604 44.28C96.4104 45.12 94.8404 45.83 93.9604 46.22C94.4104 48.72 94.6404 51.46 94.6804 54.81L95.7104 55.1C96.7504 55.4 97.8804 55.72 99.0004 56.08C102 57.01 104.99 58.16 105.11 58.21C106.54 58.39 107.6 59.62 107.48 60.98Z" fill="#FDEFCC" stroke="#3293CF" stroke-width="2" mask="url(#path-1-inside-1_84_159)"/>
</svg>
